<?xml version="1.0" encoding="UTF-8"?><svg xmlns="http://www.w3.org/2000/svg" xmlns:xlink="http://www.w3.org/1999/xlink" fill-opacity="1" color-rendering="auto" color-interpolation="auto" text-rendering="auto" stroke="black" stroke-linecap="square" width="862" stroke-miterlimit="10" shape-rendering="auto" stroke-opacity="1" fill="black" stroke-dasharray="none" font-weight="normal" stroke-width="1" height="403" font-family="'Dialog'" font-style="normal" stroke-linejoin="miter" font-size="12px" stroke-dashoffset="0" image-rendering="auto">
  <!--Generated by ySVG 2.5-->
  <defs id="genericDefs"/>
  <g>
    <defs id="defs1">
      <clipPath clipPathUnits="userSpaceOnUse" id="clipPath1">
        <path d="M0 0 L862 0 L862 403 L0 403 L0 0 Z"/>
      </clipPath>
      <clipPath clipPathUnits="userSpaceOnUse" id="clipPath2">
        <path d="M146 106 L1008 106 L1008 509 L146 509 L146 106 Z"/>
      </clipPath>
    </defs>
    <g fill="white" text-rendering="geometricPrecision" shape-rendering="geometricPrecision" transform="translate(-146,-106)" stroke="white">
      <rect x="146" width="862" height="403" y="106" clip-path="url(#clipPath2)" stroke="none"/>
    </g>
    <g fill="rgb(255,204,0)" text-rendering="geometricPrecision" shape-rendering="geometricPrecision" transform="matrix(1,0,0,1,-146,-106)" stroke="rgb(255,204,0)">
      <rect x="468" width="71.7792" height="30" y="145" clip-path="url(#clipPath2)" stroke="none"/>
    </g>
    <g text-rendering="geometricPrecision" stroke-miterlimit="1.45" shape-rendering="geometricPrecision" transform="matrix(1,0,0,1,-146,-106)" stroke-linecap="butt">
      <rect fill="none" x="468" width="71.7792" height="30" y="145" clip-path="url(#clipPath2)"/>
      <text x="479.2128" xml:space="preserve" y="164.7139" clip-path="url(#clipPath2)" font-family="sans-serif" stroke="none">Animales</text>
    </g>
    <g fill="rgb(255,204,0)" text-rendering="geometricPrecision" shape-rendering="geometricPrecision" transform="matrix(1,0,0,1,-146,-106)" stroke="rgb(255,204,0)">
      <rect x="328.7504" width="71.7792" height="30" y="231.0304" clip-path="url(#clipPath2)" stroke="none"/>
    </g>
    <g text-rendering="geometricPrecision" stroke-miterlimit="1.45" shape-rendering="geometricPrecision" transform="matrix(1,0,0,1,-146,-106)" stroke-linecap="butt">
      <rect fill="none" x="328.7504" width="71.7792" height="30" y="231.0304" clip-path="url(#clipPath2)"/>
      <text x="337.6224" xml:space="preserve" y="250.7443" clip-path="url(#clipPath2)" font-family="sans-serif" stroke="none">Voladores</text>
    </g>
    <g fill="rgb(255,204,0)" text-rendering="geometricPrecision" shape-rendering="geometricPrecision" transform="matrix(1,0,0,1,-146,-106)" stroke="rgb(255,204,0)">
      <rect x="563.8752" width="71.7792" height="30" y="231.0304" clip-path="url(#clipPath2)" stroke="none"/>
    </g>
    <g text-rendering="geometricPrecision" stroke-miterlimit="1.45" shape-rendering="geometricPrecision" transform="matrix(1,0,0,1,-146,-106)" stroke-linecap="butt">
      <rect fill="none" x="563.8752" width="71.7792" height="30" y="231.0304" clip-path="url(#clipPath2)"/>
      <text x="572.4279" xml:space="preserve" y="250.7443" clip-path="url(#clipPath2)" font-family="sans-serif" stroke="none">Terrestres</text>
    </g>
    <g fill="rgb(255,204,0)" text-rendering="geometricPrecision" shape-rendering="geometricPrecision" transform="matrix(1,0,0,1,-146,-106)" stroke="rgb(255,204,0)">
      <rect x="713.8032" width="71.7792" height="30" y="231.0304" clip-path="url(#clipPath2)" stroke="none"/>
    </g>
    <g text-rendering="geometricPrecision" stroke-miterlimit="1.45" shape-rendering="geometricPrecision" transform="matrix(1,0,0,1,-146,-106)" stroke-linecap="butt">
      <rect fill="none" x="713.8032" width="71.7792" height="30" y="231.0304" clip-path="url(#clipPath2)"/>
      <text x="723.6801" xml:space="preserve" y="250.7443" clip-path="url(#clipPath2)" font-family="sans-serif" stroke="none">Acuaticos</text>
    </g>
    <g fill="rgb(255,204,0)" text-rendering="geometricPrecision" shape-rendering="geometricPrecision" transform="matrix(1,0,0,1,-146,-106)" stroke="rgb(255,204,0)">
      <ellipse rx="26.4688" ry="15" clip-path="url(#clipPath2)" cx="188.4096" cy="365.688" stroke="none"/>
    </g>
    <g text-rendering="geometricPrecision" stroke-miterlimit="1.45" shape-rendering="geometricPrecision" transform="matrix(1,0,0,1,-146,-106)" stroke-linecap="butt">
      <ellipse rx="26.4688" fill="none" ry="15" clip-path="url(#clipPath2)" cx="188.4096" cy="365.688"/>
      <text x="173.4008" xml:space="preserve" y="370.4019" clip-path="url(#clipPath2)" font-family="sans-serif" stroke="none">Loros</text>
    </g>
    <g fill="rgb(255,204,0)" text-rendering="geometricPrecision" shape-rendering="geometricPrecision" transform="matrix(1,0,0,1,-146,-106)" stroke="rgb(255,204,0)">
      <ellipse rx="26.4688" ry="15" clip-path="url(#clipPath2)" cx="264.496" cy="365.688" stroke="none"/>
    </g>
    <g text-rendering="geometricPrecision" stroke-miterlimit="1.45" shape-rendering="geometricPrecision" transform="matrix(1,0,0,1,-146,-106)" stroke-linecap="butt">
      <ellipse rx="26.4688" fill="none" ry="15" clip-path="url(#clipPath2)" cx="264.496" cy="365.688"/>
      <text x="240.8183" xml:space="preserve" y="370.4019" clip-path="url(#clipPath2)" font-family="sans-serif" stroke="none">Gaviotas</text>
    </g>
    <g fill="rgb(255,204,0)" text-rendering="geometricPrecision" shape-rendering="geometricPrecision" transform="matrix(1,0,0,1,-146,-106)" stroke="rgb(255,204,0)">
      <ellipse rx="82.5328" ry="15" clip-path="url(#clipPath2)" cx="403.4976" cy="341.624" stroke="none"/>
    </g>
    <g text-rendering="geometricPrecision" stroke-miterlimit="1.45" shape-rendering="geometricPrecision" transform="matrix(1,0,0,1,-146,-106)" stroke-linecap="butt">
      <ellipse rx="82.5328" fill="none" ry="15" clip-path="url(#clipPath2)" cx="403.4976" cy="341.624"/>
      <text x="329.7925" xml:space="preserve" y="346.3379" clip-path="url(#clipPath2)" font-family="sans-serif" stroke="none">BichoComePiedras Volador</text>
    </g>
    <g fill="rgb(255,204,0)" text-rendering="geometricPrecision" shape-rendering="geometricPrecision" transform="matrix(1,0,0,1,-146,-106)" stroke="rgb(255,204,0)">
      <ellipse rx="26.4688" ry="15" clip-path="url(#clipPath2)" cx="542.4992" cy="365.688" stroke="none"/>
    </g>
    <g text-rendering="geometricPrecision" stroke-miterlimit="1.45" shape-rendering="geometricPrecision" transform="matrix(1,0,0,1,-146,-106)" stroke-linecap="butt">
      <ellipse rx="26.4688" fill="none" ry="15" clip-path="url(#clipPath2)" cx="542.4992" cy="365.688"/>
      <text x="529.1516" xml:space="preserve" y="370.4019" clip-path="url(#clipPath2)" font-family="sans-serif" stroke="none">Lobo</text>
    </g>
    <g fill="rgb(255,204,0)" text-rendering="geometricPrecision" shape-rendering="geometricPrecision" transform="matrix(1,0,0,1,-146,-106)" stroke="rgb(255,204,0)">
      <ellipse rx="26.4688" ry="15" clip-path="url(#clipPath2)" cx="619.7536" cy="365.688" stroke="none"/>
    </g>
    <g text-rendering="geometricPrecision" stroke-miterlimit="1.45" shape-rendering="geometricPrecision" transform="matrix(1,0,0,1,-146,-106)" stroke-linecap="butt">
      <ellipse rx="26.4688" fill="none" ry="15" clip-path="url(#clipPath2)" cx="619.7536" cy="365.688"/>
      <text x="605.0817" xml:space="preserve" y="370.4019" clip-path="url(#clipPath2)" font-family="sans-serif" stroke="none">Perro</text>
    </g>
    <g fill="rgb(255,204,0)" text-rendering="geometricPrecision" shape-rendering="geometricPrecision" transform="matrix(1,0,0,1,-146,-106)" stroke="rgb(255,204,0)">
      <ellipse rx="26.4688" ry="15" clip-path="url(#clipPath2)" cx="697.008" cy="365.688" stroke="none"/>
    </g>
    <g text-rendering="geometricPrecision" stroke-miterlimit="1.45" shape-rendering="geometricPrecision" transform="matrix(1,0,0,1,-146,-106)" stroke-linecap="butt">
      <ellipse rx="26.4688" fill="none" ry="15" clip-path="url(#clipPath2)" cx="697.008" cy="365.688"/>
      <text x="674.9914" xml:space="preserve" y="370.4019" clip-path="url(#clipPath2)" font-family="sans-serif" stroke="none">Elefante</text>
    </g>
    <g fill="rgb(255,204,0)" text-rendering="geometricPrecision" shape-rendering="geometricPrecision" transform="matrix(1,0,0,1,-146,-106)" stroke="rgb(255,204,0)">
      <ellipse rx="26.4688" ry="15" clip-path="url(#clipPath2)" cx="787.0592" cy="365.688" stroke="none"/>
    </g>
    <g text-rendering="geometricPrecision" stroke-miterlimit="1.45" shape-rendering="geometricPrecision" transform="matrix(1,0,0,1,-146,-106)" stroke-linecap="butt">
      <ellipse rx="26.4688" fill="none" ry="15" clip-path="url(#clipPath2)" cx="787.0592" cy="365.688"/>
      <text x="764.0436" xml:space="preserve" y="370.4019" clip-path="url(#clipPath2)" font-family="sans-serif" stroke="none">Ballenas</text>
    </g>
    <g fill="rgb(255,204,0)" text-rendering="geometricPrecision" shape-rendering="geometricPrecision" transform="matrix(1,0,0,1,-146,-106)" stroke="rgb(255,204,0)">
      <ellipse rx="26.4688" ry="15" clip-path="url(#clipPath2)" cx="869.9968" cy="362.816" stroke="none"/>
    </g>
    <g text-rendering="geometricPrecision" stroke-miterlimit="1.45" shape-rendering="geometricPrecision" transform="matrix(1,0,0,1,-146,-106)" stroke-linecap="butt">
      <ellipse rx="26.4688" fill="none" ry="15" clip-path="url(#clipPath2)" cx="869.9968" cy="362.816"/>
      <text x="848.3201" xml:space="preserve" y="367.5299" clip-path="url(#clipPath2)" font-family="sans-serif" stroke="none">Delfines</text>
    </g>
    <g fill="rgb(255,204,0)" text-rendering="geometricPrecision" shape-rendering="geometricPrecision" transform="matrix(1,0,0,1,-146,-106)" stroke="rgb(255,204,0)">
      <ellipse rx="26.4688" ry="15" clip-path="url(#clipPath2)" cx="963.928" cy="362.816" stroke="none"/>
    </g>
    <g text-rendering="geometricPrecision" stroke-miterlimit="1.45" shape-rendering="geometricPrecision" transform="matrix(1,0,0,1,-146,-106)" stroke-linecap="butt">
      <ellipse rx="26.4688" fill="none" ry="15" clip-path="url(#clipPath2)" cx="963.928" cy="362.816"/>
      <text x="937.5754" xml:space="preserve" y="367.5299" clip-path="url(#clipPath2)" font-family="sans-serif" stroke="none">Pinguinos</text>
    </g>
    <g fill="rgb(255,204,0)" text-rendering="geometricPrecision" shape-rendering="geometricPrecision" transform="matrix(1,0,0,1,-146,-106)" stroke="rgb(255,204,0)">
      <path d="M564.7953 472.2228 L614.3553 457.2228 L663.9153 472.2228 L614.3553 487.2227 Z" fill-rule="evenodd" clip-path="url(#clipPath2)" stroke="none"/>
    </g>
    <g text-rendering="geometricPrecision" stroke-miterlimit="1.45" shape-rendering="geometricPrecision" transform="matrix(1,0,0,1,-146,-106)" stroke-linecap="butt">
      <path fill="none" d="M564.7953 472.2228 L614.3553 457.2228 L663.9153 472.2228 L614.3553 487.2227 Z" fill-rule="evenodd" clip-path="url(#clipPath2)"/>
      <text x="584.6716" xml:space="preserve" y="476.9367" clip-path="url(#clipPath2)" font-family="sans-serif" stroke="none">HaceRuido</text>
    </g>
    <g fill="rgb(255,204,0)" text-rendering="geometricPrecision" shape-rendering="geometricPrecision" transform="matrix(1,0,0,1,-146,-106)" stroke="rgb(255,204,0)">
      <path d="M706.3024 136.9976 L755.8624 121.9976 L805.4224 136.9976 L755.8624 151.9976 Z" fill-rule="evenodd" clip-path="url(#clipPath2)" stroke="none"/>
    </g>
    <g text-rendering="geometricPrecision" stroke-miterlimit="1.45" shape-rendering="geometricPrecision" transform="matrix(1,0,0,1,-146,-106)" stroke-linecap="butt">
      <path fill="none" d="M706.3024 136.9976 L755.8624 121.9976 L805.4224 136.9976 L755.8624 151.9976 Z" fill-rule="evenodd" clip-path="url(#clipPath2)"/>
      <text x="735.1876" xml:space="preserve" y="141.7115" clip-path="url(#clipPath2)" font-family="sans-serif" stroke="none">Camina</text>
    </g>
    <g fill="rgb(255,204,0)" text-rendering="geometricPrecision" shape-rendering="geometricPrecision" transform="matrix(1,0,0,1,-146,-106)" stroke="rgb(255,204,0)">
      <path d="M353.9376 478.5016 L403.4976 463.5016 L453.0576 478.5016 L403.4976 493.5016 Z" fill-rule="evenodd" clip-path="url(#clipPath2)" stroke="none"/>
    </g>
    <g text-rendering="geometricPrecision" stroke-miterlimit="1.45" shape-rendering="geometricPrecision" transform="matrix(1,0,0,1,-146,-106)" stroke-linecap="butt">
      <path fill="none" d="M353.9376 478.5016 L403.4976 463.5016 L453.0576 478.5016 L403.4976 493.5016 Z" fill-rule="evenodd" clip-path="url(#clipPath2)"/>
      <text x="389.1538" xml:space="preserve" y="483.2155" clip-path="url(#clipPath2)" font-family="sans-serif" stroke="none">Nada</text>
      <path fill="none" d="M479.6105 175 L395.725 226.8256" clip-path="url(#clipPath2)"/>
      <path d="M388.9191 231.0304 L401.7559 228.9769 L396.5757 226.3 L396.5 220.4696 Z" clip-path="url(#clipPath2)" stroke="none"/>
      <path fill="none" d="M520.6061 175 L577.094 225.6875" clip-path="url(#clipPath2)"/>
      <path d="M583.0483 231.0304 L577.4562 219.2946 L576.3497 225.0197 L570.7775 226.7375 Z" clip-path="url(#clipPath2)" stroke="none"/>
      <path fill="none" d="M539.7792 172.5612 L706.2523 230.8264" clip-path="url(#clipPath2)"/>
      <path d="M713.8032 233.4691 L704.1287 224.7857 L705.3085 230.496 L700.8252 234.2243 Z" clip-path="url(#clipPath2)" stroke="none"/>
      <path fill="none" d="M342.5482 261.0304 L211.9887 349.6782" clip-path="url(#clipPath2)"/>
      <path d="M205.3701 354.1721 L218.1066 351.5678 L212.816 349.1165 L212.4893 343.2946 Z" clip-path="url(#clipPath2)" stroke="none"/>
      <path fill="none" d="M352.0862 261.0304 L280.9732 346.0002" clip-path="url(#clipPath2)"/>
      <path d="M275.8387 352.1351 L287.3747 346.1417 L281.615 345.2333 L279.7061 339.7237 Z" clip-path="url(#clipPath2)" stroke="none"/>
      <path fill="none" d="M370.7373 261.0304 L394.4043 319.2537" clip-path="url(#clipPath2)"/>
      <path d="M397.4169 326.6648 L397.53 313.6653 L394.0277 318.3273 L388.2661 317.4309 Z" clip-path="url(#clipPath2)" stroke="none"/>
      <path fill="none" d="M592.5861 261.0304 L552.8811 343.9948" clip-path="url(#clipPath2)"/>
      <path d="M549.4276 351.211 L559.118 342.5451 L553.3128 343.0928 L550.0977 338.2283 Z" clip-path="url(#clipPath2)" stroke="none"/>
      <path fill="none" d="M602.2706 261.0304 L615.9409 342.8641" clip-path="url(#clipPath2)"/>
      <path d="M617.259 350.7548 L620.2134 338.0949 L615.7761 341.8778 L610.3501 339.7426 Z" clip-path="url(#clipPath2)" stroke="none"/>
      <path fill="none" d="M611.955 261.0304 L680.8903 345.8551" clip-path="url(#clipPath2)"/>
      <path d="M685.9357 352.0635 L682.2478 339.5975 L680.2596 345.0791 L674.4873 345.9043 Z" clip-path="url(#clipPath2)" stroke="none"/>
      <path fill="none" d="M754.377 261.0304 L780.0621 343.2812" clip-path="url(#clipPath2)"/>
      <path d="M782.4467 350.9175 L783.6425 337.9726 L779.764 342.3266 L774.097 340.9534 Z" clip-path="url(#clipPath2)" stroke="none"/>
      <path fill="none" d="M765.1447 261.0304 L850.9122 344.2895" clip-path="url(#clipPath2)"/>
      <path d="M856.6523 349.8618 L851.5248 337.9158 L850.1946 343.593 L844.5594 345.091 Z" clip-path="url(#clipPath2)" stroke="none"/>
      <path fill="none" d="M777.2093 261.0304 L937.828 348.5881" clip-path="url(#clipPath2)"/>
      <path d="M944.8521 352.4172 L936.7091 342.2835 L936.95 348.1095 L931.9228 351.0637 Z" clip-path="url(#clipPath2)" stroke="none"/>
      <path fill="none" d="M605.9521 459.7643 L556.423 386.3317" clip-path="url(#clipPath2)"/>
      <path d="M551.9496 379.6993 L554.5145 392.4438 L556.9822 387.1608 L562.805 386.8521 Z" clip-path="url(#clipPath2)" stroke="none"/>
      <path fill="none" d="M615.1051 457.4234 L618.589 388.6716" clip-path="url(#clipPath2)"/>
      <path d="M618.9938 380.6818 L613.3929 392.4134 L618.5384 389.6703 L623.3802 392.9195 Z" clip-path="url(#clipPath2)" stroke="none"/>
      <path fill="none" d="M623.7787 460.0764 L681.4509 385.7402" clip-path="url(#clipPath2)"/>
      <path d="M686.3548 379.4194 L675.0485 385.8357 L680.838 386.5303 L682.9495 391.9655 Z" clip-path="url(#clipPath2)" stroke="none"/>
      <path fill="none" d="M630.6727 462.1571 L762.3434 380.9343" clip-path="url(#clipPath2)"/>
      <path d="M769.1522 376.7342 L756.314 378.7788 L761.4924 381.4593 L761.5641 387.2898 Z" clip-path="url(#clipPath2)" stroke="none"/>
      <path fill="none" d="M634.8577 463.4484 L841.5197 375.0033" clip-path="url(#clipPath2)"/>
      <path d="M848.8745 371.8557 L835.8751 371.9804 L840.6004 375.3968 L839.8096 381.1739 Z" clip-path="url(#clipPath2)" stroke="none"/>
      <path fill="none" d="M589.6276 464.6931 L295.4651 375.1183" clip-path="url(#clipPath2)"/>
      <path d="M287.812 372.7879 L297.8351 381.0667 L296.4217 375.4096 L300.7481 371.5004 Z" clip-path="url(#clipPath2)" stroke="none"/>
      <path fill="none" d="M587.2396 465.4408 L220.3858 373.6857" clip-path="url(#clipPath2)"/>
      <path d="M212.6248 371.7446 L223.0531 379.5068 L221.3559 373.9283 L225.4794 369.8056 Z" clip-path="url(#clipPath2)" stroke="none"/>
      <path fill="none" d="M766.6568 148.713 L946.2559 343.6361" clip-path="url(#clipPath2)"/>
      <path d="M951.6768 349.5195 L947.2226 337.3064 L945.5783 342.9007 L939.8684 344.0825 Z" clip-path="url(#clipPath2)" stroke="none"/>
      <path fill="none" d="M740.8853 147.459 L627.7982 226.4493" clip-path="url(#clipPath2)"/>
      <path d="M621.2397 231.0304 L633.9406 228.2579 L628.618 225.8767 L628.2142 220.0598 Z" clip-path="url(#clipPath2)" stroke="none"/>
      <path fill="none" d="M730.0261 144.1981 L408.2359 233.8803" clip-path="url(#clipPath2)"/>
      <path d="M400.5296 236.028 L413.4314 237.6229 L409.1992 233.6118 L410.7467 227.99 Z" clip-path="url(#clipPath2)" stroke="none"/>
      <path fill="none" d="M418.9014 468.1579 L720.7133 265.4902" clip-path="url(#clipPath2)"/>
      <path d="M727.3549 261.0304 L714.6052 263.5692 L719.8831 266.0477 L720.1799 271.8711 Z" clip-path="url(#clipPath2)" stroke="none"/>
      <path fill="none" d="M421.6861 469.0132 L593.1866 379.5471" clip-path="url(#clipPath2)"/>
      <path d="M600.2795 375.847 L587.3276 376.9641 L592.3 380.0096 L591.9528 385.8302 Z" clip-path="url(#clipPath2)" stroke="none"/>
      <path fill="none" d="M425.3174 470.1149 L667.6349 376.9778" clip-path="url(#clipPath2)"/>
      <path d="M675.1023 374.1077 L662.1074 373.7458 L666.7015 377.3366 L665.6951 383.08 Z" clip-path="url(#clipPath2)" stroke="none"/>
      <path fill="none" d="M390.025 467.5673 L285.8611 383.0279" clip-path="url(#clipPath2)"/>
      <path d="M279.6495 377.9865 L285.8161 389.4309 L286.6376 383.6581 L292.1178 381.6664 Z" clip-path="url(#clipPath2)" stroke="none"/>
    </g>
  </g>
</svg>
